<svg width="24" height="24" viewBox="0 0 24 24" fill="none" xmlns="http://www.w3.org/2000/svg">
<path fill-rule="evenodd" clip-rule="evenodd" d="M22.3399 16.9127L18.3609 13.8327C18.1687 13.6844 17.9291 13.6113 17.6869 13.6269C17.4446 13.6426 17.2164 13.746 17.0449 13.9177L14.9329 16.0307C14.7756 16.1896 14.5693 16.2908 14.3473 16.3178C14.1253 16.3449 13.9008 16.2962 13.7099 16.1797C13.0299 15.7627 11.8919 14.9547 10.4679 13.5297C9.04389 12.1067 8.23589 10.9677 7.81889 10.2887C7.70226 10.098 7.6536 9.87347 7.68083 9.65159C7.70807 9.42971 7.8096 9.22358 7.96889 9.06674L10.0809 6.95374C10.2529 6.78234 10.3564 6.55399 10.3719 6.31164C10.3873 6.06929 10.3137 5.82963 10.1649 5.63774L7.08589 1.65774C6.38589 0.754745 5.06589 0.611745 4.20589 1.36674C3.07289 2.36074 1.71189 3.84974 1.31589 5.52074C0.598894 8.53074 1.73189 12.3077 6.71189 17.2877C11.6919 22.2667 15.4689 23.4007 18.4779 22.6847C20.1489 22.2867 21.6389 20.9247 22.6329 19.7927C23.3869 18.9327 23.2439 17.6127 22.3399 16.9127Z" fill="#97A3AE"/>
</svg>
