<svg width="24" height="24" viewBox="0 0 24 24" fill="none" xmlns="http://www.w3.org/2000/svg">
<g clip-path="url(#clip0_194_4714)">
<path fill-rule="evenodd" clip-rule="evenodd" d="M12 0.612305C10.8065 0.612305 9.66193 1.08641 8.81802 1.93032C7.97411 2.77424 7.5 3.91883 7.5 5.1123V11.3153C7.5 12.5088 7.97411 13.6534 8.81802 14.4973C9.66193 15.3412 10.8065 15.8153 12 15.8153C13.1935 15.8153 14.3381 15.3412 15.182 14.4973C16.0259 13.6534 16.5 12.5088 16.5 11.3153V5.1123C16.5 3.91883 16.0259 2.77424 15.182 1.93032C14.3381 1.08641 13.1935 0.612305 12 0.612305Z" fill="#97A3AE"/>
<path fill-rule="evenodd" clip-rule="evenodd" d="M20.6009 11.3154C20.6009 11.0502 20.4955 10.7959 20.308 10.6083C20.1205 10.4208 19.8661 10.3154 19.6009 10.3154C19.3357 10.3154 19.0813 10.4208 18.8938 10.6083C18.7063 10.7959 18.6009 11.0502 18.6009 11.3154C18.599 13.0656 17.903 14.7435 16.6655 15.981C15.4279 17.2185 13.75 17.9146 11.9999 17.9164C10.2501 17.9143 8.57262 17.2183 7.33534 15.981C6.09805 14.7437 5.40202 13.0662 5.3999 11.3164C5.3999 11.0512 5.29455 10.7969 5.10701 10.6093C4.91947 10.4218 4.66512 10.3164 4.3999 10.3164C4.13469 10.3164 3.88033 10.4218 3.6928 10.6093C3.50526 10.7969 3.3999 11.0512 3.3999 11.3164C3.3999 15.7194 6.7279 19.3564 10.9999 19.8534V23.0004C10.9999 23.2656 11.1053 23.52 11.2928 23.7075C11.4803 23.8951 11.7347 24.0004 11.9999 24.0004C12.2651 24.0004 12.5195 23.8951 12.707 23.7075C12.8945 23.52 12.9999 23.2656 12.9999 23.0004V19.8534C17.2729 19.3554 20.6009 15.7194 20.6009 11.3154Z" fill="#97A3AE"/>
</g>
<defs>
<clipPath id="clip0_194_4714">
<rect width="24" height="24" fill="white"/>
</clipPath>
</defs>
</svg>
