<svg width="24" height="24" viewBox="0 0 24 24" fill="none" xmlns="http://www.w3.org/2000/svg">
<path fill-rule="evenodd" clip-rule="evenodd" d="M20.1211 8.62505C20.1212 8.80231 20.0862 8.97784 20.0183 9.14156C19.9503 9.30528 19.8507 9.45396 19.7251 9.57905L12.9751 16.329C12.8497 16.4545 12.7009 16.5539 12.5371 16.6218C12.3733 16.6897 12.1977 16.7246 12.0203 16.7246C11.843 16.7246 11.6674 16.6897 11.5036 16.6218C11.3398 16.5539 11.191 16.4545 11.0656 16.329L4.31559 9.57905C4.18587 9.45467 4.08229 9.30564 4.01092 9.1407C3.93955 8.97576 3.90183 8.79823 3.89997 8.61852C3.89812 8.43881 3.93217 8.26054 4.00012 8.09416C4.06807 7.92779 4.16855 7.77665 4.29568 7.64962C4.42281 7.52259 4.57403 7.42222 4.74046 7.3544C4.90689 7.28658 5.08519 7.25268 5.26489 7.25467C5.4446 7.25667 5.6221 7.29453 5.78699 7.36602C5.95187 7.43752 6.10082 7.54123 6.2251 7.67105L12.0211 13.4655L17.8156 7.67105C18.0043 7.48197 18.2449 7.35314 18.5069 7.30085C18.7688 7.24856 19.0404 7.27517 19.2873 7.37731C19.5341 7.47945 19.7451 7.65253 19.8935 7.87464C20.042 8.09675 20.1212 8.35791 20.1211 8.62505Z" fill="#97A3AE"/>
</svg>
