<svg width="24" height="24" viewBox="0 0 24 24" fill="none" xmlns="http://www.w3.org/2000/svg">
<path fill-rule="evenodd" clip-rule="evenodd" d="M3.8999 15.3544C3.89981 15.1772 3.93475 15.0016 4.00271 14.8379C4.07067 14.6742 4.17031 14.5255 4.2959 14.4004L11.0459 7.65044C11.1713 7.52504 11.3201 7.42556 11.4839 7.35769C11.6477 7.28982 11.8233 7.25488 12.0007 7.25488C12.178 7.25488 12.3536 7.28982 12.5174 7.35769C12.6812 7.42556 12.83 7.52504 12.9554 7.65044L19.7054 14.4004C19.8351 14.5248 19.9387 14.6739 20.0101 14.8388C20.0814 15.0037 20.1192 15.1813 20.121 15.361C20.1229 15.5407 20.0888 15.719 20.0209 15.8853C19.9529 16.0517 19.8524 16.2028 19.7253 16.3299C19.5982 16.4569 19.447 16.5573 19.2805 16.6251C19.1141 16.6929 18.9358 16.7268 18.7561 16.7248C18.5764 16.7228 18.3989 16.685 18.234 16.6135C18.0691 16.542 17.9202 16.4383 17.7959 16.3084L11.9999 10.5139L6.2054 16.3084C6.01668 16.4975 5.77611 16.6264 5.51414 16.6786C5.25217 16.7309 4.98057 16.7043 4.73373 16.6022C4.48688 16.5 4.27589 16.327 4.12746 16.1048C3.97903 15.8827 3.89984 15.6216 3.8999 15.3544Z" fill="#97A3AE"/>
</svg>
