<svg width="24" height="24" viewBox="0 0 24 24" fill="none" xmlns="http://www.w3.org/2000/svg">
<path fill-rule="evenodd" clip-rule="evenodd" d="M10.061 3.18145C9.66599 2.78667 9.13047 2.56476 8.572 2.56445H4.106C3.54745 2.56445 3.01178 2.78633 2.61683 3.18129C2.22188 3.57624 2 4.11191 2 4.67045V5.64745H12.527L10.061 3.18145ZM19.895 6.64745H2V19.3315C2 20.4945 2.943 21.4365 4.106 21.4365H19.895C20.1715 21.4366 20.4453 21.3822 20.7007 21.2765C20.9562 21.1707 21.1883 21.0157 21.3838 20.8202C21.5792 20.6247 21.7343 20.3926 21.84 20.1372C21.9458 19.8817 22.0001 19.6079 22 19.3315V8.75245C22.0001 8.47598 21.9458 8.2022 21.84 7.94675C21.7343 7.6913 21.5792 7.45919 21.3838 7.2637C21.1883 7.06821 20.9562 6.91316 20.7007 6.80742C20.4453 6.70168 20.1715 6.64732 19.895 6.64745Z" fill="#97A3AE"/>
</svg>
