<svg width="24" height="24" viewBox="0 0 24 24" fill="none" xmlns="http://www.w3.org/2000/svg">
<path fill-rule="evenodd" clip-rule="evenodd" d="M11.9999 1.40039C11.7082 1.40039 11.4284 1.51628 11.2221 1.72257C11.0158 1.92886 10.8999 2.20865 10.8999 2.50039V5.54239C10.8999 5.83413 11.0158 6.11392 11.2221 6.32021C11.4284 6.5265 11.7082 6.64239 11.9999 6.64239C12.2916 6.64239 12.5714 6.5265 12.7777 6.32021C12.984 6.11392 13.0999 5.83413 13.0999 5.54239V2.50039C13.0999 2.35594 13.0715 2.2129 13.0162 2.07944C12.9609 1.94598 12.8799 1.82472 12.7777 1.72257C12.6756 1.62043 12.5543 1.5394 12.4209 1.48412C12.2874 1.42884 12.1444 1.40039 11.9999 1.40039Z" fill="#97A3AE"/>
<path fill-rule="evenodd" clip-rule="evenodd" d="M6.65576 8.21125C6.75771 8.31381 6.87893 8.3952 7.01245 8.45074C7.14597 8.50628 7.28915 8.53487 7.43376 8.53487C7.57837 8.53487 7.72156 8.50628 7.85507 8.45074C7.98859 8.3952 8.10981 8.31381 8.21176 8.21125C8.41792 8.00482 8.53371 7.725 8.53371 7.43325C8.53371 7.14151 8.41792 6.86169 8.21176 6.65525L6.05976 4.50525C5.85023 4.31618 5.57608 4.2148 5.29395 4.22204C5.01181 4.22928 4.74323 4.34459 4.54367 4.54416C4.3441 4.74372 4.22879 5.0123 4.22155 5.29444C4.21431 5.57657 4.3157 5.85071 4.50476 6.06025L6.65476 8.21125H6.65576Z" fill="#97A3AE" fill-opacity="0.16"/>
<path fill-rule="evenodd" clip-rule="evenodd" d="M6.6419 12.0004C6.6419 11.7087 6.52601 11.4289 6.31972 11.2226C6.11343 11.0163 5.83364 10.9004 5.5419 10.9004H2.4999C2.20816 10.9004 1.92837 11.0163 1.72208 11.2226C1.51579 11.4289 1.3999 11.7087 1.3999 12.0004C1.3999 12.2921 1.51579 12.5719 1.72208 12.7782C1.92837 12.9845 2.20816 13.1004 2.4999 13.1004H5.5419C5.83364 13.1004 6.11343 12.9845 6.31972 12.7782C6.52601 12.5719 6.6419 12.2921 6.6419 12.0004Z" fill="#97A3AE" fill-opacity="0.32"/>
<path fill-rule="evenodd" clip-rule="evenodd" d="M6.65588 15.7893L4.50488 17.9393C4.40271 18.0414 4.32166 18.1627 4.26637 18.2962C4.21108 18.4297 4.18262 18.5728 4.18262 18.7173C4.18262 18.8618 4.21108 19.0048 4.26637 19.1383C4.32166 19.2718 4.40271 19.3931 4.50488 19.4953C4.71121 19.7016 4.99107 19.8175 5.28288 19.8175C5.42736 19.8175 5.57044 19.7891 5.70393 19.7338C5.83742 19.6785 5.95871 19.5974 6.06088 19.4953L8.21088 17.3453C8.40227 17.1361 8.50561 16.8612 8.49938 16.5778C8.49315 16.2943 8.37782 16.0242 8.17742 15.8237C7.97702 15.6232 7.70699 15.5077 7.42356 15.5013C7.14013 15.4948 6.86514 15.598 6.65588 15.7893Z" fill="#97A3AE" fill-opacity="0.56"/>
<path fill-rule="evenodd" clip-rule="evenodd" d="M11.9999 17.3584C11.7082 17.3584 11.4284 17.4743 11.2221 17.6806C11.0158 17.8869 10.8999 18.1667 10.8999 18.4584V21.5004C10.8999 21.7921 11.0158 22.0719 11.2221 22.2782C11.4284 22.4845 11.7082 22.6004 11.9999 22.6004C12.2916 22.6004 12.5714 22.4845 12.7777 22.2782C12.984 22.0719 13.0999 21.7921 13.0999 21.5004V18.4584C13.0999 18.1667 12.984 17.8869 12.7777 17.6806C12.5714 17.4743 12.2916 17.3584 11.9999 17.3584Z" fill="#97A3AE" fill-opacity="0.56"/>
<path fill-rule="evenodd" clip-rule="evenodd" d="M17.3441 15.7891C17.2419 15.6869 17.1206 15.6058 16.9871 15.5505C16.8536 15.4953 16.7106 15.4668 16.5661 15.4668C16.4216 15.4668 16.2785 15.4953 16.145 15.5505C16.0115 15.6058 15.8902 15.6869 15.7881 15.7891C15.6859 15.8912 15.6049 16.0125 15.5496 16.146C15.4943 16.2795 15.4658 16.4226 15.4658 16.5671C15.4658 16.7115 15.4943 16.8546 15.5496 16.9881C15.6049 17.1216 15.6859 17.2429 15.7881 17.3451L17.9391 19.4951C18.0411 19.5975 18.1623 19.6788 18.2958 19.7342C18.4294 19.7897 18.5725 19.8183 18.7171 19.8183C18.8616 19.8183 19.0048 19.7897 19.1383 19.7342C19.2718 19.6788 19.3931 19.5975 19.4951 19.4951C19.5973 19.3929 19.6783 19.2716 19.7337 19.1381C19.789 19.0046 19.8174 18.8616 19.8174 18.7171C19.8174 18.5726 19.789 18.4295 19.7337 18.296C19.6783 18.1625 19.5973 18.0412 19.4951 17.9391L17.3451 15.7891H17.3441Z" fill="#97A3AE" fill-opacity="0.72"/>
<path fill-rule="evenodd" clip-rule="evenodd" d="M21.4999 10.9004H18.4579C18.1662 10.9004 17.8864 11.0163 17.6801 11.2226C17.4738 11.4289 17.3579 11.7087 17.3579 12.0004C17.3579 12.2921 17.4738 12.5719 17.6801 12.7782C17.8864 12.9845 18.1662 13.1004 18.4579 13.1004H21.4999C21.7916 13.1004 22.0714 12.9845 22.2777 12.7782C22.484 12.5719 22.5999 12.2921 22.5999 12.0004C22.5999 11.7087 22.484 11.4289 22.2777 11.2226C22.0714 11.0163 21.7916 10.9004 21.4999 10.9004Z" fill="#97A3AE" fill-opacity="0.72"/>
<path fill-rule="evenodd" clip-rule="evenodd" d="M16.5658 8.53436C16.8468 8.53436 17.1287 8.42736 17.3437 8.21236L19.4948 6.06136C19.6887 5.85257 19.7942 5.57669 19.789 5.29173C19.7838 5.00677 19.6682 4.73494 19.4667 4.53341C19.2652 4.33188 18.9933 4.21635 18.7084 4.21112C18.4234 4.20589 18.1475 4.31137 17.9387 4.50536L15.7887 6.65536C15.635 6.80928 15.5304 7.00527 15.4879 7.21861C15.4455 7.43195 15.4672 7.65308 15.5504 7.8541C15.6335 8.05511 15.7743 8.22699 15.955 8.34806C16.1357 8.46913 16.3482 8.53396 16.5658 8.53436Z" fill="#97A3AE" fill-opacity="0.72"/>
</svg>
