<svg width="24" height="24" viewBox="0 0 24 24" fill="none" xmlns="http://www.w3.org/2000/svg">
<path d="M21.111 4.25863L12.38 0.673633C12.137 0.573633 11.864 0.573633 11.62 0.673633L2.88904 4.25863C2.51404 4.41263 2.26904 4.77763 2.26904 5.18363V13.5186C2.26904 17.3156 7.07204 21.0086 11.552 23.2926C11.834 23.4366 12.166 23.4366 12.447 23.2926C16.927 21.0086 21.73 17.3156 21.73 13.5186V5.18363C21.731 4.77863 21.486 4.41263 21.111 4.25863ZM12 6.49663C13.217 6.49663 14.203 7.48263 14.203 8.69963C14.203 9.91663 13.217 10.9016 12 10.9016C10.783 10.9016 9.79704 9.91563 9.79704 8.69863C9.79704 7.48163 10.783 6.49663 12 6.49663ZM12 16.5026C10.023 16.5026 7.10504 16.2246 7.10504 15.1816C7.10504 14.1386 8.47604 11.8956 12 11.8956C15.524 11.8956 16.895 14.1386 16.895 15.1816C16.895 16.2246 13.977 16.5026 12 16.5026Z" fill="#97A3AE"/>
</svg>
