<svg width="24" height="24" viewBox="0 0 24 24" fill="none" xmlns="http://www.w3.org/2000/svg">
<path fill-rule="evenodd" clip-rule="evenodd" d="M19.9826 4.61164C19.8716 4.34264 19.6566 4.12864 19.3876 4.01664C19.2536 3.96164 19.1106 3.93164 18.9676 3.93164H10.8966C10.2896 3.93164 9.79662 4.42464 9.79662 5.03264C9.79662 5.63964 10.2896 6.13264 10.8966 6.13264H16.3116L6.13262 16.3116V10.8966C6.13262 10.2886 5.63962 9.79664 5.03262 9.79664C4.42462 9.79664 3.93262 10.2886 3.93262 10.8966V18.9676C3.93262 19.1106 3.96162 19.2536 4.01762 19.3876C4.12862 19.6566 4.34262 19.8706 4.61162 19.9826C4.74662 20.0376 4.88862 20.0676 5.03262 20.0676H13.1036C13.7106 20.0676 14.2036 19.5746 14.2036 18.9676C14.2036 18.3596 13.7106 17.8666 13.1036 17.8666H7.68862L17.8676 7.68764V13.1026C17.8676 13.7106 18.3596 14.2026 18.9676 14.2026C19.5746 14.2026 20.0676 13.7106 20.0676 13.1026V5.03264C20.0676 4.88864 20.0386 4.74664 19.9826 4.61164Z" fill="#97A3AE"/>
</svg>
