<svg width="24" height="24" viewBox="0 0 24 24" fill="none" xmlns="http://www.w3.org/2000/svg">
<path fill-rule="evenodd" clip-rule="evenodd" d="M12 1.56543C6.201 1.56543 1.5 5.81843 1.5 11.0654C1.5 13.5924 2.598 15.8824 4.376 17.5854L3.508 21.8344C3.48952 21.9253 3.49667 22.0195 3.52867 22.1066C3.56066 22.1936 3.61624 22.2701 3.68918 22.3273C3.76212 22.3846 3.84956 22.4205 3.94171 22.4309C4.03386 22.4413 4.1271 22.4259 4.211 22.3864L8.942 20.1534C9.93827 20.4272 10.9668 20.5657 12 20.5654C17.799 20.5654 22.5 16.3124 22.5 11.0654C22.5 5.81843 17.799 1.56543 12 1.56543Z" fill="#97A3AE"/>
</svg>
