<svg width="24" height="24" viewBox="0 0 24 24" fill="none" xmlns="http://www.w3.org/2000/svg">
<path fill-rule="evenodd" clip-rule="evenodd" d="M21.9999 10.9004H1.9999C1.70816 10.9004 1.42837 11.0163 1.22208 11.2226C1.01579 11.4289 0.899902 11.7087 0.899902 12.0004C0.899902 12.2921 1.01579 12.5719 1.22208 12.7782C1.42837 12.9845 1.70816 13.1004 1.9999 13.1004H21.9999C22.2916 13.1004 22.5714 12.9845 22.7777 12.7782C22.984 12.5719 23.0999 12.2921 23.0999 12.0004C23.0999 11.7087 22.984 11.4289 22.7777 11.2226C22.5714 11.0163 22.2916 10.9004 21.9999 10.9004ZM3.9999 9.10039C4.29164 9.10039 4.57143 8.9845 4.77772 8.77821C4.98401 8.57192 5.0999 8.29213 5.0999 8.00039V5.20039C5.0999 5.17387 5.11044 5.14843 5.12919 5.12968C5.14794 5.11093 5.17338 5.10039 5.1999 5.10039H7.9999C8.29164 5.10039 8.57143 4.9845 8.77772 4.77821C8.98401 4.57192 9.0999 4.29213 9.0999 4.00039C9.0999 3.70865 8.98401 3.42886 8.77772 3.22257C8.57143 3.01628 8.29164 2.90039 7.9999 2.90039H5.1999C4.59015 2.90118 4.00559 3.14376 3.57443 3.57492C3.14327 4.00608 2.9007 4.59064 2.8999 5.20039V8.00039C2.8999 8.29213 3.01579 8.57192 3.22208 8.77821C3.42838 8.9845 3.70816 9.10039 3.9999 9.10039ZM7.9999 18.9004H5.1999C5.18677 18.9004 5.17377 18.8978 5.16163 18.8928C5.1495 18.8878 5.13848 18.8804 5.12919 18.8711C5.11991 18.8618 5.11254 18.8508 5.10751 18.8387C5.10249 18.8265 5.0999 18.8135 5.0999 18.8004V16.0004C5.0999 15.7087 4.98401 15.4289 4.77772 15.2226C4.57143 15.0163 4.29164 14.9004 3.9999 14.9004C3.70816 14.9004 3.42838 15.0163 3.22208 15.2226C3.01579 15.4289 2.8999 15.7087 2.8999 16.0004V18.8004C2.8999 20.0684 3.9319 21.1004 5.1999 21.1004H7.9999C8.29164 21.1004 8.57143 20.9845 8.77772 20.7782C8.98401 20.5719 9.0999 20.2921 9.0999 20.0004C9.0999 19.7087 8.98401 19.4289 8.77772 19.2226C8.57143 19.0163 8.29164 18.9004 7.9999 18.9004ZM15.9999 5.10039H18.7999C18.8264 5.10039 18.8519 5.11093 18.8706 5.12968C18.8894 5.14843 18.8999 5.17387 18.8999 5.20039V8.00039C18.8999 8.29213 19.0158 8.57192 19.2221 8.77821C19.4284 8.9845 19.7082 9.10039 19.9999 9.10039C20.2916 9.10039 20.5714 8.9845 20.7777 8.77821C20.984 8.57192 21.0999 8.29213 21.0999 8.00039V5.20039C21.0999 3.93239 20.0679 2.90039 18.7999 2.90039H15.9999C15.7082 2.90039 15.4284 3.01628 15.2221 3.22257C15.0158 3.42886 14.8999 3.70865 14.8999 4.00039C14.8999 4.29213 15.0158 4.57192 15.2221 4.77821C15.4284 4.9845 15.7082 5.10039 15.9999 5.10039ZM19.9999 14.9004C19.8554 14.9004 19.7124 14.9288 19.579 14.9841C19.4455 15.0394 19.3242 15.1204 19.2221 15.2226C19.1199 15.3247 19.0389 15.446 18.9836 15.5794C18.9284 15.7129 18.8999 15.8559 18.8999 16.0004V18.8004C18.8999 18.8135 18.8973 18.8265 18.8923 18.8387C18.8873 18.8508 18.8799 18.8618 18.8706 18.8711C18.8613 18.8804 18.8503 18.8878 18.8382 18.8928C18.826 18.8978 18.813 18.9004 18.7999 18.9004H15.9999C15.7082 18.9004 15.4284 19.0163 15.2221 19.2226C15.0158 19.4289 14.8999 19.7087 14.8999 20.0004C14.8999 20.2921 15.0158 20.5719 15.2221 20.7782C15.4284 20.9845 15.7082 21.1004 15.9999 21.1004H18.7999C20.0679 21.1004 21.0999 20.0684 21.0999 18.8004V16.0004C21.0999 15.7087 20.984 15.4289 20.7777 15.2226C20.5714 15.0163 20.2916 14.9004 19.9999 14.9004Z" fill="#97A3AE"/>
</svg>
