<svg width="24" height="24" viewBox="0 0 24 24" fill="none" xmlns="http://www.w3.org/2000/svg">
<path fill-rule="evenodd" clip-rule="evenodd" d="M16.5172 2.1496L6.03518 7.5366H2.92118C2.35118 7.5366 1.88818 7.9996 1.88818 8.5696V15.4296C1.88818 15.9996 2.35118 16.4626 2.92118 16.4626H6.03518L16.5172 21.8496C16.6697 21.9279 16.8397 21.9658 17.011 21.9594C17.1824 21.9531 17.3492 21.9029 17.4955 21.8135C17.6418 21.7241 17.7626 21.5987 17.8465 21.4491C17.9303 21.2996 17.9743 21.131 17.9742 20.9596V3.0396C17.9743 2.86816 17.9303 2.69959 17.8465 2.55005C17.7626 2.40052 17.6418 2.27504 17.4955 2.18568C17.3492 2.09632 17.1824 2.04606 17.011 2.03974C16.8397 2.03342 16.6697 2.07125 16.5172 2.1496ZM21.2362 9.1666H19.2802V14.8326H21.2352C21.9592 14.8326 22.5452 14.2456 22.5452 13.5216V10.4786C22.5452 9.7536 21.9592 9.1666 21.2352 9.1666" fill="#97A3AE"/>
</svg>
