<svg width="24" height="24" viewBox="0 0 24 24" fill="none" xmlns="http://www.w3.org/2000/svg">
<path fill-rule="evenodd" clip-rule="evenodd" d="M12 18.5003C7.879 18.5003 4.397 17.3953 2.377 15.6543C2.138 16.0833 2 16.5333 2 17.0003C2 19.7623 6.478 22.0003 12 22.0003C17.522 22.0003 22 19.7623 22 17.0003C22 16.5333 21.862 16.0833 21.623 15.6543C19.604 17.3953 16.121 18.5003 12 18.5003Z" fill="#97A3AE"/>
<path fill-rule="evenodd" clip-rule="evenodd" d="M12 13.5003C7.879 13.5003 4.397 12.3953 2.377 10.6543C2.138 11.0833 2 11.5333 2 12.0003C2 14.7623 6.478 17.0003 12 17.0003C17.522 17.0003 22 14.7623 22 12.0003C22 11.5333 21.862 11.0833 21.623 10.6543C19.604 12.3953 16.121 13.5003 12 13.5003Z" fill="#97A3AE"/>
<path fill-rule="evenodd" clip-rule="evenodd" d="M12 12C17.522 12 22 9.762 22 7C22 4.239 17.522 2 12 2C6.478 2 2 4.239 2 7C2 9.762 6.478 12 12 12Z" fill="#97A3AE"/>
</svg>
