<svg width="24" height="24" viewBox="0 0 24 24" fill="none" xmlns="http://www.w3.org/2000/svg">
<path fill-rule="evenodd" clip-rule="evenodd" d="M9.1252 17.1254C9.60259 17.1254 10.0604 17.315 10.398 17.6526C10.7356 17.9902 10.9252 18.448 10.9252 18.9254C10.9252 19.4028 10.7356 19.8606 10.398 20.1982C10.0604 20.5357 9.60259 20.7254 9.1252 20.7254C8.64781 20.7254 8.18997 20.5357 7.8524 20.1982C7.51484 19.8606 7.3252 19.4028 7.3252 18.9254C7.3252 18.448 7.51484 17.9902 7.8524 17.6526C8.18997 17.315 8.64781 17.1254 9.1252 17.1254ZM10.9252 12.1254C10.9252 13.1254 10.1252 13.9254 9.1252 13.9254C8.1252 13.9254 7.3252 13.1254 7.3252 12.1254C7.3252 11.1254 8.1252 10.3254 9.1252 10.3254C10.1252 10.3254 10.9252 11.1254 10.9252 12.1254ZM10.9252 5.32539C10.9252 6.32539 10.1252 7.12539 9.1252 7.12539C8.1252 7.12539 7.3252 6.32539 7.3252 5.32539C7.3252 4.32539 8.1252 3.52539 9.1252 3.52539C10.1252 3.52539 10.9252 4.32539 10.9252 5.32539ZM15.1252 17.1254C15.6026 17.1254 16.0604 17.315 16.398 17.6526C16.7356 17.9902 16.9252 18.448 16.9252 18.9254C16.9252 19.4028 16.7356 19.8606 16.398 20.1982C16.0604 20.5357 15.6026 20.7254 15.1252 20.7254C14.6478 20.7254 14.19 20.5357 13.8524 20.1982C13.5148 19.8606 13.3252 19.4028 13.3252 18.9254C13.3252 18.448 13.5148 17.9902 13.8524 17.6526C14.19 17.315 14.6478 17.1254 15.1252 17.1254ZM16.9252 12.1254C16.9252 13.1254 16.1252 13.9254 15.1252 13.9254C14.1252 13.9254 13.3252 13.1254 13.3252 12.1254C13.3252 11.1254 14.1252 10.3254 15.1252 10.3254C16.1252 10.3254 16.9252 11.1254 16.9252 12.1254ZM16.9252 5.32539C16.9252 6.32539 16.1252 7.12539 15.1252 7.12539C14.1252 7.12539 13.3252 6.32539 13.3252 5.32539C13.3252 4.32539 14.1252 3.52539 15.1252 3.52539C16.1252 3.52539 16.9252 4.32539 16.9252 5.32539Z" fill="#97A3AE"/>
</svg>
