<svg width="24" height="24" viewBox="0 0 24 24" fill="none" xmlns="http://www.w3.org/2000/svg">
<path d="M14.7789 4.67222C13.8709 4.45422 12.9429 4.32422 11.9999 4.32422C7.78795 4.32422 3.80495 6.58522 1.18195 10.3522C0.497945 11.3342 0.497945 12.6672 1.18195 13.6492C1.82195 14.5682 2.54495 15.3932 3.32995 16.1222L14.7789 4.67222Z" fill="#97A3AE"/>
<path d="M22.8188 10.3523C21.7688 8.84433 20.4938 7.59133 19.0788 6.61933L21.6478 4.05033C22.1168 3.58133 22.1168 2.82133 21.6478 2.35333C21.1788 1.88533 20.4188 1.88433 19.9508 2.35333L2.35175 19.9503C1.88275 20.4193 1.88275 21.1793 2.35175 21.6473C2.58575 21.8813 2.89375 21.9993 3.20075 21.9993C3.50775 21.9993 3.81475 21.8823 4.04975 21.6473L7.09375 18.6033C8.64275 19.2943 10.2998 19.6763 11.9998 19.6763C16.2127 19.6763 20.1958 17.4153 22.8188 13.6483C23.5018 12.6673 23.5018 11.3343 22.8188 10.3523ZM11.9987 15.9743C11.3397 15.9743 10.7248 15.8033 10.1798 15.5163L15.5148 10.1813C15.8018 10.7263 15.9727 11.3403 15.9727 11.9993C15.9727 14.1923 14.1897 15.9743 11.9987 15.9743Z" fill="#97A3AE"/>
</svg>
