<svg width="24" height="24" viewBox="0 0 24 24" fill="none" xmlns="http://www.w3.org/2000/svg">
<path fill-rule="evenodd" clip-rule="evenodd" d="M12.0002 12.7416C11.6394 12.7485 11.281 12.6834 10.9457 12.5502C10.6104 12.4169 10.305 12.2182 10.0475 11.9655C9.78994 11.7128 9.58534 11.4114 9.44568 11.0787C9.30601 10.746 9.23407 10.3889 9.23407 10.0281C9.23407 9.66729 9.30601 9.31012 9.44568 8.97746C9.58534 8.6448 9.78994 8.34332 10.0475 8.09067C10.305 7.83801 10.6104 7.63924 10.9457 7.50598C11.281 7.37273 11.6394 7.30766 12.0002 7.31458C12.7108 7.32823 13.3877 7.62011 13.8855 8.1275C14.3832 8.6349 14.6621 9.31731 14.6621 10.0281C14.6621 10.7389 14.3832 11.4213 13.8855 11.9287C13.3877 12.4361 12.7108 12.7279 12.0002 12.7416ZM9.87617 1.03658C5.60617 1.98958 2.61217 6.00858 2.78017 10.3806C2.91217 13.8146 5.01917 16.8866 11.2882 22.9136C11.6842 23.2936 12.3182 23.2956 12.7152 22.9146C19.1992 16.6816 21.2312 13.6096 21.2312 10.0276C21.2312 4.23758 15.8982 -0.307416 9.87617 1.03758" fill="#97A3AE"/>
</svg>
