<svg width="24" height="24" viewBox="0 0 24 24" fill="none" xmlns="http://www.w3.org/2000/svg">
<path fill-rule="evenodd" clip-rule="evenodd" d="M12.0002 19.1905C11.8426 19.1905 11.6865 19.1595 11.5409 19.0992C11.3953 19.0389 11.2631 18.9505 11.1516 18.8391C11.0402 18.7276 10.9518 18.5953 10.8915 18.4497C10.8312 18.3042 10.8002 18.1481 10.8002 17.9905C10.8002 17.8329 10.8312 17.6769 10.8915 17.5313C10.9518 17.3857 11.0402 17.2534 11.1516 17.142C11.2631 17.0306 11.3953 16.9422 11.5409 16.8819C11.6865 16.8216 11.8426 16.7905 12.0002 16.7905C12.3184 16.7905 12.6236 16.917 12.8487 17.142C13.0737 17.367 13.2002 17.6723 13.2002 17.9905C13.2002 18.3088 13.0737 18.614 12.8487 18.8391C12.6236 19.0641 12.3184 19.1905 12.0002 19.1905ZM11.0002 9.20752C11.0002 8.94231 11.1055 8.68795 11.293 8.50042C11.4806 8.31288 11.7349 8.20752 12.0002 8.20752C12.2654 8.20752 12.5197 8.31288 12.7073 8.50042C12.8948 8.68795 13.0002 8.94231 13.0002 9.20752V14.2075C13.0002 14.4727 12.8948 14.7271 12.7073 14.9146C12.5197 15.1022 12.2654 15.2075 12.0002 15.2075C11.7349 15.2075 11.4806 15.1022 11.293 14.9146C11.1055 14.7271 11.0002 14.4727 11.0002 14.2075V9.20752ZM22.9142 18.8145L14.0792 3.51152C13.1552 1.91152 10.8451 1.91152 9.92115 3.51152L1.08615 18.8145C0.16315 20.4145 1.31615 22.4145 3.16515 22.4145H20.8351C22.6831 22.4145 23.8372 20.4145 22.9142 18.8145Z" fill="#97A3AE"/>
</svg>
