<svg width="24" height="24" viewBox="0 0 24 24" fill="none" xmlns="http://www.w3.org/2000/svg">
<path fill-rule="evenodd" clip-rule="evenodd" d="M14.7709 4.60039C15.0174 4.60839 15.2511 4.71193 15.4226 4.88912C15.5942 5.06632 15.6901 5.30327 15.6901 5.54989C15.6901 5.79651 15.5942 6.03346 15.4226 6.21066C15.2511 6.38785 15.0174 6.49139 14.7709 6.49939C14.5244 6.49139 14.2907 6.38785 14.1192 6.21066C13.9476 6.03346 13.8517 5.79651 13.8517 5.54989C13.8517 5.30327 13.9476 5.06632 14.1192 4.88912C14.2907 4.71193 14.5244 4.60839 14.7709 4.60039ZM3.4999 6.64939H11.8299C12.0531 7.24989 12.4543 7.76795 12.9798 8.13429C13.5054 8.50062 14.1303 8.69778 14.7709 8.69939C15.4114 8.69758 16.036 8.50032 16.5614 8.134C17.0867 7.76768 17.4878 7.24973 17.7109 6.64939H20.4999C20.7916 6.64939 21.0714 6.5335 21.2777 6.32721C21.484 6.12092 21.5999 5.84113 21.5999 5.54939C21.5999 5.25765 21.484 4.97786 21.2777 4.77157C21.0714 4.56528 20.7916 4.44939 20.4999 4.44939H17.7109C17.4876 3.84923 17.0865 3.3315 16.5612 2.96537C16.0358 2.59923 15.4112 2.40213 14.7709 2.40039C14.1305 2.40221 13.5058 2.59933 12.9803 2.96544C12.4548 3.33155 12.0535 3.84923 11.8299 4.44939H3.4999C3.20816 4.44939 2.92837 4.56528 2.72208 4.77157C2.51579 4.97786 2.3999 5.25765 2.3999 5.54939C2.3999 5.84113 2.51579 6.12092 2.72208 6.32721C2.92837 6.5335 3.20816 6.64939 3.4999 6.64939ZM20.4999 10.8994H3.4999C3.20816 10.8994 2.92837 11.0153 2.72208 11.2216C2.51579 11.4279 2.3999 11.7077 2.3999 11.9994C2.3999 12.2911 2.51579 12.5709 2.72208 12.7772C2.92837 12.9835 3.20816 13.0994 3.4999 13.0994H20.4999C20.7916 13.0994 21.0714 12.9835 21.2777 12.7772C21.484 12.5709 21.5999 12.2911 21.5999 11.9994C21.5999 11.7077 21.484 11.4279 21.2777 11.2216C21.0714 11.0153 20.7916 10.8994 20.4999 10.8994ZM9.2289 19.4004C8.98475 19.3892 8.75431 19.2843 8.58549 19.1076C8.41668 18.9308 8.32248 18.6958 8.32248 18.4514C8.32248 18.207 8.41668 17.972 8.58549 17.7952C8.75431 17.6185 8.98475 17.5136 9.2289 17.5024C9.47539 17.5104 9.70911 17.6139 9.88064 17.7911C10.0522 17.9683 10.1481 18.2053 10.1481 18.4519C10.1481 18.6985 10.0522 18.9355 9.88064 19.1127C9.70911 19.2899 9.47539 19.3934 9.2289 19.4014M20.4999 17.3504H12.1699C11.9467 16.7499 11.5455 16.2318 11.02 15.8655C10.4944 15.4992 9.86954 15.302 9.2289 15.3004C8.58844 15.3022 7.96379 15.4995 7.43843 15.8658C6.91306 16.2321 6.51202 16.75 6.2889 17.3504H3.4999C3.20816 17.3504 2.92837 17.4663 2.72208 17.6726C2.51579 17.8789 2.3999 18.1587 2.3999 18.4504C2.3999 18.7421 2.51579 19.0219 2.72208 19.2282C2.92837 19.4345 3.20816 19.5504 3.4999 19.5504H6.2889C6.51202 20.1507 6.91306 20.6687 7.43843 21.035C7.96379 21.4013 8.58844 21.5986 9.2289 21.6004C9.86947 21.5985 10.4942 21.4012 11.0197 21.0349C11.5452 20.6686 11.9465 20.1507 12.1699 19.5504H20.4999C20.7916 19.5504 21.0714 19.4345 21.2777 19.2282C21.484 19.0219 21.5999 18.7421 21.5999 18.4504C21.5999 18.1587 21.484 17.8789 21.2777 17.6726C21.0714 17.4663 20.7916 17.3504 20.4999 17.3504Z" fill="#97A3AE"/>
</svg>
