<svg width="24" height="24" viewBox="0 0 24 24" fill="none" xmlns="http://www.w3.org/2000/svg">
<path fill-rule="evenodd" clip-rule="evenodd" d="M19.7349 3.81155V1.70755C19.7342 1.61601 19.709 1.52634 19.6619 1.44782C19.6148 1.36931 19.5476 1.30482 19.4672 1.26105C19.3868 1.21728 19.2962 1.19582 19.2047 1.1989C19.1132 1.20198 19.0242 1.22948 18.9469 1.27855C14.7499 3.90055 13.6699 10.1706 13.3999 12.7096C13.3856 12.8485 13.4007 12.9889 13.4442 13.1216C13.4876 13.2544 13.5585 13.3765 13.6523 13.48C13.746 13.5835 13.8605 13.6662 13.9883 13.7226C14.116 13.7791 14.2542 13.808 14.3939 13.8076L16.9739 13.8116L16.6959 21.8776C16.6885 22.0817 16.7223 22.2852 16.7953 22.4759C16.8683 22.6667 16.979 22.8408 17.1208 22.9878C17.2626 23.1348 17.4325 23.2518 17.6205 23.3316C17.8085 23.4115 18.0106 23.4527 18.2149 23.4527C18.4191 23.4527 18.6213 23.4115 18.8093 23.3316C18.9973 23.2518 19.1672 23.1348 19.309 22.9878C19.4508 22.8408 19.5615 22.6667 19.6345 22.4759C19.7075 22.2852 19.7413 22.0817 19.7339 21.8776V3.81155H19.7349ZM11.3879 1.01855C11.1227 1.01855 10.8683 1.12391 10.6808 1.31145C10.4933 1.49898 10.3879 1.75334 10.3879 2.01855V6.18155C10.3879 6.24355 10.3749 6.30155 10.3729 6.36255H8.5919V2.01855C8.5919 1.75334 8.48654 1.49898 8.29901 1.31145C8.11147 1.12391 7.85711 1.01855 7.5919 1.01855C7.32668 1.01855 7.07233 1.12391 6.88479 1.31145C6.69726 1.49898 6.5919 1.75334 6.5919 2.01855V6.36255H4.8109C4.8089 6.30155 4.7959 6.24355 4.7959 6.18155V2.01855C4.7959 1.75334 4.69054 1.49898 4.50301 1.31145C4.31547 1.12391 4.06111 1.01855 3.7959 1.01855C3.53068 1.01855 3.27633 1.12391 3.08879 1.31145C2.90126 1.49898 2.7959 1.75334 2.7959 2.01855V6.18155C2.7959 8.75255 4.3729 10.9086 6.4849 11.4786L6.0729 21.8796C6.06769 22.0824 6.10315 22.2842 6.17717 22.4731C6.25119 22.662 6.36229 22.8342 6.5039 22.9795C6.64551 23.1248 6.81478 23.2402 7.00173 23.3191C7.18867 23.3979 7.38951 23.4385 7.5924 23.4385C7.79529 23.4385 7.99613 23.3979 8.18307 23.3191C8.37002 23.2402 8.53928 23.1248 8.6809 22.9795C8.82251 22.8342 8.9336 22.662 9.00763 22.4731C9.08165 22.2842 9.1171 22.0824 9.1119 21.8796L8.6999 11.4786C10.8109 10.9086 12.3879 8.75255 12.3879 6.18155V2.01855C12.3879 1.75334 12.2825 1.49898 12.095 1.31145C11.9075 1.12391 11.6531 1.01855 11.3879 1.01855Z" fill="#97A3AE"/>
</svg>
