<svg width="24" height="24" viewBox="0 0 24 24" fill="none" xmlns="http://www.w3.org/2000/svg">
<path fill-rule="evenodd" clip-rule="evenodd" d="M22.3599 20.8396L18.9229 16.0296C18.639 15.6354 18.2274 15.3517 17.7579 15.2266L17.7039 15.2916C16.8089 16.3516 15.6709 17.5416 14.1209 19.0396C13.5524 19.5896 12.7919 19.8963 12.0009 19.8946C11.2103 19.8968 10.4501 19.5904 9.88194 19.0406C8.29994 17.5106 7.14394 16.2976 6.24194 15.2236C5.76831 15.3466 5.35263 15.6314 5.06694 16.0286L1.62994 20.8396C1.51786 20.9967 1.45121 21.1815 1.4373 21.374C1.4234 21.5664 1.46277 21.7589 1.55111 21.9304C1.63945 22.1019 1.77333 22.2458 1.93807 22.3462C2.1028 22.4466 2.29201 22.4997 2.48494 22.4996H21.5049C22.3589 22.4996 22.8549 21.5346 22.3589 20.8396" fill="#97A3AE"/>
<path fill-rule="evenodd" clip-rule="evenodd" d="M11.9997 6.30171C12.266 6.29562 12.5309 6.3428 12.7788 6.44049C13.0266 6.53817 13.2525 6.68439 13.443 6.87055C13.6336 7.05672 13.785 7.27908 13.8885 7.52458C13.9919 7.77008 14.0453 8.03378 14.0454 8.30018C14.0455 8.56659 13.9925 8.83034 13.8893 9.07594C13.7861 9.32155 13.6348 9.54406 13.4444 9.73042C13.2541 9.91677 13.0284 10.0632 12.7806 10.1611C12.5329 10.2591 12.268 10.3065 12.0017 10.3007C11.4713 10.3008 10.9625 10.0903 10.5873 9.71527C10.2122 9.34029 10.0013 8.83164 10.0012 8.30121C10.0011 7.77077 10.2117 7.26201 10.5866 6.88685C10.9616 6.51168 11.4703 6.30084 12.0007 6.30071M11.2727 17.6027C11.469 17.7905 11.7303 17.8952 12.0019 17.895C12.2736 17.8948 12.5346 17.7897 12.7307 17.6017C17.3487 13.1397 18.8027 10.9017 18.8027 8.30171C18.8027 3.89771 14.6157 0.470706 10.0057 1.78371C7.09571 2.61371 5.19971 5.27571 5.19971 8.30171C5.19971 10.9037 6.65471 13.1407 11.2727 17.6017" fill="#97A3AE"/>
</svg>
