<svg width="24" height="24" viewBox="0 0 24 24" fill="none" xmlns="http://www.w3.org/2000/svg">
<path fill-rule="evenodd" clip-rule="evenodd" d="M20.9659 10.8004H6.92988L12.3809 5.34936C12.4938 5.23826 12.5836 5.10591 12.6451 4.95993C12.7066 4.81395 12.7386 4.65724 12.7393 4.49883C12.7399 4.34042 12.7092 4.18346 12.6489 4.03698C12.5886 3.89051 12.4998 3.75743 12.3878 3.64542C12.2758 3.53341 12.1427 3.44468 11.9963 3.38436C11.8498 3.32403 11.6928 3.29331 11.5344 3.29396C11.376 3.2946 11.2193 3.3266 11.0733 3.38812C10.9273 3.44963 10.795 3.53944 10.6839 3.65236L3.18388 11.1524C3.18088 11.1544 3.17988 11.1584 3.17688 11.1614C3.01236 11.3292 2.90078 11.5418 2.85598 11.7725C2.81118 12.0033 2.83514 12.2421 2.92488 12.4594C2.98488 12.6024 3.06988 12.7294 3.17688 12.8394L3.18388 12.8494L10.6839 20.3494C10.9189 20.5834 11.2259 20.6994 11.5319 20.6994C11.7691 20.6993 12.0011 20.629 12.1984 20.4972C12.3957 20.3654 12.5495 20.1781 12.6403 19.9589C12.7312 19.7397 12.7551 19.4985 12.7089 19.2658C12.6627 19.0331 12.5486 18.8192 12.3809 18.6514L6.93088 13.2004H20.9669C21.2851 13.2004 21.5904 13.0739 21.8154 12.8489C22.0405 12.6238 22.1669 12.3186 22.1669 12.0004C22.1669 11.6821 22.0405 11.3769 21.8154 11.1518C21.5904 10.9268 21.2851 10.8004 20.9669 10.8004" fill="#97A3AE"/>
</svg>
