<svg width="24" height="24" viewBox="0 0 24 24" fill="none" xmlns="http://www.w3.org/2000/svg">
<path fill-rule="evenodd" clip-rule="evenodd" d="M18.0001 13.3003H15.9131L15.1721 15.9923C15.115 16.2055 14.9888 16.3936 14.8133 16.5274C14.6377 16.6611 14.4228 16.7328 14.2021 16.7313C13.9815 16.733 13.7666 16.6613 13.5912 16.5275C13.4158 16.3937 13.2898 16.2055 13.2331 15.9923L12.0001 11.5143L10.7681 15.9923C10.7112 16.2054 10.5852 16.3935 10.4098 16.5273C10.2344 16.661 10.0196 16.7328 9.7991 16.7313H9.7981C9.57756 16.7329 9.36271 16.6613 9.18719 16.5278C9.01167 16.3942 8.88539 16.2063 8.8281 15.9933L8.0871 13.3003H6.0001C5.78792 13.3003 5.58444 13.216 5.43441 13.066C5.28438 12.9159 5.2001 12.7125 5.2001 12.5003C5.2001 12.2881 5.28438 12.0846 5.43441 11.9346C5.58444 11.7846 5.78792 11.7003 6.0001 11.7003H7.6461L6.9811 9.28129C6.9495 9.17891 6.93879 9.07123 6.94961 8.96463C6.96042 8.85803 6.99254 8.75469 7.04406 8.66074C7.09557 8.56679 7.16543 8.48415 7.2495 8.41772C7.33356 8.35128 7.43011 8.30241 7.53342 8.27401C7.63673 8.2456 7.7447 8.23823 7.85091 8.25235C7.95712 8.26646 8.05941 8.30177 8.15172 8.35617C8.24402 8.41057 8.32446 8.48296 8.38826 8.56905C8.45205 8.65513 8.49791 8.75315 8.5231 8.85729L9.7981 13.4863L11.0301 9.00829C11.0872 8.79513 11.2134 8.60694 11.3889 8.4732C11.5645 8.33947 11.7794 8.26775 12.0001 8.26929C12.4581 8.26929 12.8481 8.56629 12.9701 9.00829L14.2021 13.4863L15.4771 8.85729C15.5333 8.65267 15.6685 8.47878 15.853 8.37385C15.9443 8.3219 16.045 8.28844 16.1492 8.27539C16.2535 8.26234 16.3593 8.26995 16.4606 8.29779C16.5619 8.32563 16.6568 8.37315 16.7397 8.43764C16.8226 8.50214 16.8921 8.58234 16.944 8.67366C16.996 8.76499 17.0294 8.86565 17.0425 8.96991C17.0555 9.07417 17.0479 9.17997 17.0201 9.28129L16.3541 11.7003H18.0001C18.1052 11.7003 18.2092 11.721 18.3062 11.7612C18.4033 11.8014 18.4915 11.8603 18.5658 11.9346C18.6401 12.0089 18.699 12.0971 18.7392 12.1941C18.7794 12.2912 18.8001 12.3952 18.8001 12.5003C18.8001 12.6053 18.7794 12.7094 18.7392 12.8064C18.699 12.9035 18.6401 12.9917 18.5658 13.066C18.4915 13.1403 18.4033 13.1992 18.3062 13.2394C18.2092 13.2796 18.1052 13.3003 18.0001 13.3003ZM21.0001 1.94629H3.0001C2.7614 1.94629 2.53248 2.04111 2.3637 2.20989C2.19492 2.37868 2.1001 2.60759 2.1001 2.84629C2.1001 3.08498 2.19492 3.3139 2.3637 3.48269C2.53248 3.65147 2.7614 3.74629 3.0001 3.74629V20.8463C3.0001 21.1115 3.10545 21.3659 3.29299 21.5534C3.48053 21.7409 3.73488 21.8463 4.0001 21.8463H20.0001C20.2653 21.8463 20.5197 21.7409 20.7072 21.5534C20.8947 21.3659 21.0001 21.1115 21.0001 20.8463V3.74629C21.2388 3.74629 21.4677 3.65147 21.6365 3.48269C21.8053 3.3139 21.9001 3.08498 21.9001 2.84629C21.9001 2.60759 21.8053 2.37868 21.6365 2.20989C21.4677 2.04111 21.2388 1.94629 21.0001 1.94629Z" fill="#97A3AE"/>
</svg>
