<svg width="24" height="24" viewBox="0 0 24 24" fill="none" xmlns="http://www.w3.org/2000/svg">
<path d="M11.21 15.3997C11.42 15.6097 11.71 15.7197 11.99 15.7197C12.27 15.7197 12.55 15.6097 12.77 15.3997L18 10.1597C18.43 9.72969 18.43 9.02969 18 8.59969C17.57 8.16969 16.87 8.16969 16.44 8.59969L13.09 11.9497V2.77969C13.09 2.16969 12.6 1.67969 11.99 1.67969C11.38 1.67969 10.89 2.16969 10.89 2.77969V11.9597L7.52996 8.60969C7.09996 8.17969 6.39996 8.17969 5.96996 8.60969C5.53996 9.03969 5.53996 9.73969 5.96996 10.1697L11.21 15.3997Z" fill="#97A3AE"/>
<path d="M21.38 13.0898C20.77 13.0898 20.28 13.5798 20.28 14.1898V18.3998C20.28 19.1198 19.7 19.6998 18.98 19.6998H5C4.28 19.6998 3.7 19.1198 3.7 18.3998V14.1898C3.7 13.5798 3.21 13.0898 2.6 13.0898C1.99 13.0898 1.5 13.5798 1.5 14.1898V18.3998C1.5 20.3298 3.07 21.8998 5 21.8998H18.98C20.91 21.8998 22.48 20.3298 22.48 18.3998V14.1898C22.48 13.5798 21.99 13.0898 21.38 13.0898Z" fill="#97A3AE"/>
</svg>
