<svg width="24" height="24" viewBox="0 0 24 24" fill="none" xmlns="http://www.w3.org/2000/svg">
<path fill-rule="evenodd" clip-rule="evenodd" d="M12.7661 6.60361C12.6116 6.45108 12.4157 6.3473 12.2027 6.30516C11.9897 6.26303 11.769 6.28439 11.5681 6.36661C11.4345 6.42163 11.3129 6.50212 11.2101 6.60361L5.50409 12.3096C5.30222 12.5167 5.19005 12.795 5.19186 13.0843C5.19367 13.3735 5.30932 13.6504 5.51377 13.8549C5.71822 14.0595 5.99502 14.1753 6.28424 14.1773C6.57347 14.1793 6.85184 14.0673 7.05909 13.8656L10.8881 10.0356V21.3806C10.8881 21.6723 11.004 21.9521 11.2103 22.1584C11.4166 22.3647 11.6964 22.4806 11.9881 22.4806C12.2798 22.4806 12.5596 22.3647 12.7659 22.1584C12.9722 21.9521 13.0881 21.6723 13.0881 21.3806V10.0376L16.9171 13.8666C17.1321 14.0816 17.4131 14.1886 17.6951 14.1886C17.9127 14.1887 18.1255 14.1242 18.3064 14.0033C18.4874 13.8825 18.6284 13.7107 18.7117 13.5096C18.795 13.3086 18.8168 13.0873 18.7743 12.8739C18.7318 12.6605 18.627 12.4644 18.4731 12.3106L12.7661 6.60361ZM21.3801 2.09961H2.59609C2.30436 2.09961 2.02457 2.2155 1.81828 2.42179C1.61199 2.62808 1.49609 2.90787 1.49609 3.19961C1.49609 3.49135 1.61199 3.77114 1.81828 3.97743C2.02457 4.18372 2.30436 4.29961 2.59609 4.29961H21.3811C21.6728 4.29961 21.9526 4.18372 22.1589 3.97743C22.3652 3.77114 22.4811 3.49135 22.4811 3.19961C22.4811 2.90787 22.3652 2.62808 22.1589 2.42179C21.9526 2.2155 21.6728 2.09961 21.3811 2.09961" fill="#97A3AE"/>
</svg>
