<svg width="24" height="24" viewBox="0 0 24 24" fill="none" xmlns="http://www.w3.org/2000/svg">
<path fill-rule="evenodd" clip-rule="evenodd" d="M1.1001 12.0111C1.1001 11.4036 1.59258 10.9111 2.2001 10.9111H13.9291C14.5366 10.9111 15.0291 11.4036 15.0291 12.0111C15.0291 12.6186 14.5366 13.1111 13.9291 13.1111H2.2001C1.59258 13.1111 1.1001 12.6186 1.1001 12.0111Z" fill="#97A3AE"/>
<path fill-rule="evenodd" clip-rule="evenodd" d="M8.21106 6.00202C8.64056 6.43168 8.64043 7.12816 8.21077 7.55765L3.75588 12.0108L8.21091 16.4659C8.64049 16.8954 8.64049 17.5919 8.21092 18.0215C7.78134 18.4511 7.08486 18.4511 6.65528 18.0215L1.42228 12.7885C1.21596 12.5822 1.10007 12.3024 1.1001 12.0106C1.10013 11.7188 1.21607 11.439 1.42243 11.2327L6.65543 6.00172C7.08509 5.57223 7.78157 5.57236 8.21106 6.00202Z" fill="#97A3AE"/>
<path fill-rule="evenodd" clip-rule="evenodd" d="M14.2373 4.71953C13.8925 4.71953 13.5619 4.8565 13.3181 5.10029C13.0743 5.34409 12.9373 5.67475 12.9373 6.01953V7.71353C12.9373 8.32104 12.4448 8.81353 11.8373 8.81353C11.2298 8.81353 10.7373 8.32104 10.7373 7.71353V6.01953C10.7373 5.09127 11.1061 4.20103 11.7624 3.54466C12.4188 2.88828 13.309 2.51953 14.2373 2.51953H18.6853C19.6136 2.51953 20.5038 2.88828 21.1602 3.54466C21.8166 4.20104 22.1853 5.09128 22.1853 6.01953V18.0045C22.1849 18.9325 21.816 19.8229 21.1597 20.4789C20.5033 21.135 19.6133 21.5035 18.6853 21.5035H14.2373C13.309 21.5035 12.4188 21.1348 11.7624 20.4784C11.1061 19.822 10.7373 18.9318 10.7373 18.0035V16.3135C10.7373 15.706 11.2298 15.2135 11.8373 15.2135C12.4448 15.2135 12.9373 15.706 12.9373 16.3135V18.0035C12.9373 18.3483 13.0743 18.679 13.3181 18.9228C13.5619 19.1666 13.8925 19.3035 14.2373 19.3035H18.6853C19.03 19.3035 19.3606 19.1666 19.6044 18.923C19.8481 18.6793 19.9852 18.3488 19.9853 18.0041V6.01953C19.9853 5.67475 19.8483 5.34409 19.6045 5.10029C19.3607 4.8565 19.0301 4.71953 18.6853 4.71953H14.2373Z" fill="#97A3AE"/>
</svg>
