<svg width="24" height="24" viewBox="0 0 24 24" fill="none" xmlns="http://www.w3.org/2000/svg">
<path fill-rule="evenodd" clip-rule="evenodd" d="M12.4936 20.462L12.4936 6.42597L17.9446 11.877C18.0557 11.9899 18.188 12.0797 18.334 12.1412C18.48 12.2027 18.6367 12.2347 18.7951 12.2354C18.9535 12.236 19.1105 12.2053 19.257 12.145C19.4034 12.0847 19.5365 11.9959 19.6485 11.8839C19.7605 11.7719 19.8493 11.6388 19.9096 11.4923C19.9699 11.3459 20.0006 11.1889 20 11.0305C19.9993 10.8721 19.9673 10.7154 19.9058 10.5694C19.8443 10.4234 19.7545 10.2911 19.6416 10.18L12.1416 2.67997C12.1396 2.67697 12.1356 2.67597 12.1326 2.67297C11.9647 2.50846 11.7522 2.39687 11.5214 2.35207C11.2907 2.30727 11.0518 2.33123 10.8346 2.42097C10.6916 2.48097 10.5646 2.56597 10.4546 2.67297L10.4446 2.67997L2.94459 10.18C2.71059 10.415 2.59459 10.722 2.59459 11.028C2.5946 11.2652 2.66495 11.4972 2.79675 11.6945C2.92854 11.8918 3.11587 12.0456 3.33505 12.1364C3.55423 12.2273 3.79543 12.2511 4.02816 12.205C4.26089 12.1588 4.47471 12.0446 4.64259 11.877L10.0936 6.42697L10.0936 20.463C10.0936 20.7812 10.22 21.0865 10.4451 21.3115C10.6701 21.5365 10.9753 21.663 11.2936 21.663C11.6118 21.663 11.9171 21.5365 12.1421 21.3115C12.3672 21.0865 12.4936 20.7812 12.4936 20.463" fill="#97A3AE"/>
</svg>
