<svg width="24" height="24" viewBox="0 0 24 24" fill="none" xmlns="http://www.w3.org/2000/svg">
<path fill-rule="evenodd" clip-rule="evenodd" d="M3.95118 7.75753H17.3932L14.8992 10.2515C14.7079 10.4608 14.6048 10.7358 14.6112 11.0192C14.6176 11.3026 14.7331 11.5727 14.9336 11.7731C15.1341 11.9735 15.4043 12.0888 15.6877 12.095C15.9711 12.1013 16.246 11.9979 16.4552 11.8065L20.8262 7.43453C20.9292 7.33285 21.011 7.21172 21.0669 7.07816C21.1227 6.9446 21.1515 6.80129 21.1515 6.65653C21.1515 6.51177 21.1227 6.36845 21.0669 6.23489C21.011 6.10134 20.9292 5.9802 20.8262 5.87853L16.4552 1.50853C16.3536 1.40414 16.2322 1.32097 16.0982 1.26386C15.9642 1.20674 15.8202 1.17681 15.6745 1.17581C15.5289 1.1748 15.3844 1.20274 15.2497 1.258C15.1149 1.31326 14.9924 1.39474 14.8894 1.49771C14.7863 1.60069 14.7048 1.7231 14.6494 1.85785C14.5941 1.9926 14.5661 2.137 14.567 2.28267C14.5679 2.42834 14.5977 2.57238 14.6547 2.70642C14.7118 2.84047 14.7949 2.96185 14.8992 3.06353L17.3932 5.55753H3.95118C3.65944 5.55753 3.37965 5.67342 3.17336 5.87971C2.96707 6.086 2.85118 6.36579 2.85118 6.65753C2.85118 6.94926 2.96707 7.22905 3.17336 7.43534C3.37965 7.64163 3.65944 7.75753 3.95118 7.75753ZM20.0492 16.2405H6.60718L9.10018 13.7465C9.30192 13.5393 9.41391 13.2609 9.41191 12.9717C9.40992 12.6825 9.29409 12.4057 9.08951 12.2012C8.88493 11.9968 8.60805 11.8811 8.31883 11.8793C8.0296 11.8775 7.7513 11.9897 7.54418 12.1915L3.17218 16.5625C3.0695 16.6644 2.988 16.7856 2.93239 16.9191C2.87678 17.0527 2.84814 17.1959 2.84814 17.3405C2.84814 17.4852 2.87678 17.6284 2.93239 17.7619C2.988 17.8954 3.0695 18.0166 3.17218 18.1185L7.54418 22.4905C7.64635 22.5927 7.76764 22.6737 7.90113 22.729C8.03462 22.7843 8.17769 22.8128 8.32218 22.8128C8.46667 22.8128 8.60974 22.7843 8.74323 22.729C8.87672 22.6737 8.99801 22.5927 9.10018 22.4905C9.20235 22.3884 9.28339 22.2671 9.33868 22.1336C9.39398 22.0001 9.42244 21.857 9.42244 21.7125C9.42244 21.568 9.39398 21.425 9.33868 21.2915C9.28339 21.158 9.20235 21.0367 9.10018 20.9345L6.60618 18.4405H20.0482C20.3399 18.4405 20.6197 18.3246 20.826 18.1183C21.0323 17.9121 21.1482 17.6323 21.1482 17.3405C21.1482 17.0488 21.0323 16.769 20.826 16.5627C20.6197 16.3564 20.3399 16.2405 20.0482 16.2405" fill="#97A3AE"/>
</svg>
