<svg width="24" height="24" viewBox="0 0 24 24" fill="none" xmlns="http://www.w3.org/2000/svg">
<path fill-rule="evenodd" clip-rule="evenodd" d="M22.084 20.0813C21.987 19.5233 21.502 19.1143 20.934 19.1143H20.352V9.87934L20.348 9.62834C20.216 5.13134 16.529 1.52734 12 1.52734C7.388 1.52734 3.647 5.26634 3.647 9.88034V19.1153H3.065C2.498 19.1153 2.013 19.5233 1.915 20.0823L1.5 22.4733H22.5L22.084 20.0813ZM11.1 7.22034C11.1 6.72434 11.503 6.32034 12 6.32034C12.498 6.32034 12.9 6.72434 12.9 7.22034V10.9363C12.9 11.4343 12.498 11.8383 12 11.8383C11.503 11.8383 11.1 11.4343 11.1 10.9363V7.22034ZM12.001 13.3393C12.653 13.3393 13.184 13.8683 13.184 14.5223C13.184 15.1753 12.654 15.7053 12.001 15.7053C11.346 15.7053 10.816 15.1753 10.816 14.5223C10.816 13.8693 11.346 13.3393 12.001 13.3393Z" fill="#97A3AE"/>
</svg>
