<svg width="24" height="24" viewBox="0 0 24 24" fill="none" xmlns="http://www.w3.org/2000/svg">
<path fill-rule="evenodd" clip-rule="evenodd" d="M21.0791 5.30953L12.9891 0.639525C12.8328 0.549384 12.6555 0.50194 12.475 0.501953C12.2945 0.501966 12.1173 0.549436 11.961 0.6396C11.8046 0.729764 11.6748 0.859451 11.5844 1.01565C11.494 1.17185 11.4463 1.34907 11.4461 1.52953V2.96953C11.4463 3.87191 11.2089 4.75844 10.7577 5.53996C10.3066 6.32148 9.65762 6.97042 8.87608 7.42153L2.92308 10.8595C2.7667 10.9497 2.63683 11.0795 2.54653 11.2358C2.45623 11.3922 2.40869 11.5695 2.40869 11.75C2.40869 11.9306 2.45623 12.1079 2.54653 12.2642C2.63683 12.4205 2.7667 12.5503 2.92308 12.6405L8.31808 15.7545C8.27108 15.8095 8.21408 15.8505 8.17808 15.9145L4.72208 21.8995C4.56981 22.1747 4.53164 22.4986 4.61577 22.8016C4.69989 23.1046 4.8996 23.3625 5.17193 23.5197C5.44425 23.677 5.76742 23.7211 6.07192 23.6425C6.37641 23.5639 6.63788 23.3689 6.80008 23.0995L10.2561 17.1155C10.2931 17.0505 10.3001 16.9805 10.3231 16.9135L15.7191 20.0275C15.8753 20.1177 16.0526 20.1652 16.233 20.1653C16.4134 20.1653 16.5907 20.1178 16.747 20.0276C16.9032 19.9374 17.033 19.8077 17.1233 19.6514C17.2135 19.4952 17.261 19.318 17.2611 19.1375V12.2635C17.2611 10.4265 18.2401 8.72952 19.8311 7.81152L21.0791 7.09153C21.2357 7.0014 21.3658 6.87158 21.4563 6.71515C21.5467 6.55873 21.5943 6.38122 21.5943 6.20053C21.5943 6.01983 21.5467 5.84232 21.4563 5.6859C21.3658 5.52947 21.2357 5.39965 21.0791 5.30953Z" fill="#97A3AE"/>
</svg>
