<svg width="24" height="24" viewBox="0 0 24 24" fill="none" xmlns="http://www.w3.org/2000/svg">
<path fill-rule="evenodd" clip-rule="evenodd" d="M12.7258 0.766407L20.2008 8.65641C20.268 8.72736 20.313 8.81647 20.3302 8.91273C20.3473 9.00898 20.3359 9.10814 20.2972 9.19796C20.2586 9.28777 20.1945 9.36429 20.1128 9.41804C20.0312 9.4718 19.9355 9.50044 19.8378 9.50041H4.16177C4.064 9.50044 3.96837 9.4718 3.8867 9.41804C3.80504 9.36429 3.74093 9.28777 3.7023 9.19796C3.66367 9.10814 3.65222 9.00898 3.66937 8.91273C3.68651 8.81647 3.7315 8.72736 3.79877 8.65641L11.2738 0.766407C11.3672 0.667756 11.4798 0.589185 11.6046 0.53549C11.7294 0.481795 11.8639 0.454102 11.9998 0.454102C12.1356 0.454102 12.2701 0.481795 12.3949 0.53549C12.5198 0.589185 12.6323 0.667756 12.7258 0.766407ZM12.7258 23.2344L20.2008 15.3444C20.268 15.2735 20.313 15.1843 20.3302 15.0881C20.3473 14.9918 20.3359 14.8927 20.2972 14.8029C20.2586 14.713 20.1945 14.6365 20.1128 14.5828C20.0312 14.529 19.9355 14.5004 19.8378 14.5004H4.16177C4.064 14.5004 3.96837 14.529 3.8867 14.5828C3.80504 14.6365 3.74093 14.713 3.7023 14.8029C3.66367 14.8927 3.65222 14.9918 3.66937 15.0881C3.68651 15.1843 3.7315 15.2735 3.79877 15.3444L11.2738 23.2344C11.3672 23.3331 11.4798 23.4116 11.6046 23.4653C11.7294 23.519 11.8639 23.5467 11.9998 23.5467C12.1356 23.5467 12.2701 23.519 12.3949 23.4653C12.5198 23.4116 12.6323 23.3331 12.7258 23.2344Z" fill="#97A3AE"/>
</svg>
