<svg width="24" height="24" viewBox="0 0 24 24" fill="none" xmlns="http://www.w3.org/2000/svg">
<path fill-rule="evenodd" clip-rule="evenodd" d="M16.8872 6.64352C16.8872 7.28634 16.7607 7.92288 16.5148 8.5168C16.2688 9.11071 15.9083 9.65037 15.4538 10.105C14.9993 10.5595 14.4597 10.9202 13.8659 11.1662C13.272 11.4123 12.6355 11.539 11.9927 11.539C10.6944 11.5392 9.44932 11.0236 8.53124 10.1057C7.61315 9.18777 7.0973 7.94276 7.09717 6.64452C7.09711 6.0017 7.22365 5.36516 7.46959 4.77125C7.71553 4.17734 8.07603 3.63768 8.53053 3.18309C9.44843 2.265 10.6934 1.74916 11.9917 1.74902C13.2899 1.74889 14.535 2.26449 15.4531 3.18238C16.3712 4.10028 16.887 5.34529 16.8872 6.64352ZM11.9922 13.0365C4.94317 13.0365 2.20117 17.5225 2.20117 19.6095C2.20117 21.6955 8.03817 22.2515 11.9922 22.2515C15.9462 22.2515 21.7832 21.6955 21.7832 19.6095C21.7832 17.5225 19.0412 13.0365 11.9922 13.0365Z" fill="#97A3AE"/>
</svg>
